<?xml version="1.0" encoding="UTF-8"?>
<svg width="677px" height="436px" viewBox="0 0 677 436" version="1.1" xmlns="http://www.w3.org/2000/svg" xmlns:xlink="http://www.w3.org/1999/xlink">
    <!-- Generator: Sketch 49.1 (51147) - http://www.bohemiancoding.com/sketch -->
    <title>Background Checks</title>
    <desc>Created with Sketch.</desc>
    <defs>
        <polygon id="path-1" points="496.478849 421.558219 0 421.558219 0 0.0637300592 992.957699 0.0637300592 992.957699 421.558219"></polygon>
        <path d="M53.5874413,20.4151563 C53.5874369,9.08759379 51.245634,1.59151189 46.5062916,0.424373832 L8.74151568,60.0448167 C3.03280887,78.6752392 0.139391422,95.9994193 0.139361866,108.592833 L0.139361866,108.593059 L0.139361866,108.593059 L0.139361866,128.759759 L53.5874413,128.759759 L53.5874413,20.4153835 C53.5874413,20.4153077 53.5874413,20.415232 53.5874413,20.4151563 L53.5874413,20.4151286 L53.5874413,20.4151563 Z" id="path-3"></path>
        <path d="M54.6530304,20.2291599 C54.6530259,8.87527869 52.2806458,1.36178742 47.4792625,0.192649182 L9.23580853,59.9355135 C3.45456835,78.6052096 0.524878573,95.9657973 0.524848542,108.584679 L0.524848542,108.584856 L0.524848542,108.584906 L0.524848542,128.788907 L54.6530304,128.788907 L54.6530304,20.229387 C54.6530304,20.2293113 54.6530304,20.2292356 54.6530304,20.2291599 L54.6530304,20.2291323 L54.6530304,20.2291599 Z" id="path-5"></path>
        <path d="M53.7883687,20.0233879 C53.7883642,8.69293412 51.44593,1.19453695 46.7051533,0.0272034508 L8.94308293,59.6462861 C3.23441531,78.2758649 0.342497269,95.599596 0.342467517,108.192431 L0.342467517,108.192658 L0.342467517,108.192658 L0.342467517,128.357184 L53.7883687,128.357184 L53.7883687,20.0236145 C53.7883687,20.0235389 53.7883687,20.0234634 53.7883687,20.0233879 L53.7883687,20.0233879 L53.7883687,20.0233879 Z" id="path-7"></path>
        <path d="M0.144995101,25.9606231 C6.78741216,2.98330218 43.8227173,-6.45133956 82.8633321,4.88037383 C121.920361,16.2120872 148.186361,44.0321495 141.553519,66.9930218 C134.898791,89.978567 97.8689571,99.4077259 58.8187672,88.0773832 L0.144995101,25.9606231 Z" id="path-9"></path>
    </defs>
    <g id="Pages" stroke="none" stroke-width="1" fill="none" fill-rule="evenodd">
        <g id="/background-checks/" transform="translate(-763.000000, -312.000000)">
            <g id="Background-Checks" transform="translate(763.000000, 312.000000)">
                <g id="Group-3" transform="translate(0.000000, 14.000000)">
                    <mask id="mask-2" fill="white">
                        <use xlink:href="#path-1"></use>
                    </mask>
                    <g id="Clip-2"></g>
                    <path d="M220.43867,255.630721 C161.879444,294.504119 82.9506652,278.46035 44.146785,219.799637 C5.34154281,161.13756 21.355821,82.0701546 79.9150477,43.1981212 C138.472913,4.32472347 217.403053,20.3684926 256.208295,79.0292055 C295.012175,137.691283 278.997897,216.758688 220.43867,255.630721 L220.43867,255.630721 Z M585.493123,238.088988 C582.86062,238.103995 580.692517,240.260899 580.663917,242.89939 L580.552244,252.117736 L561.901377,251.893996 C559.264789,251.861254 557.098047,253.975866 557.066724,256.621178 L556.876062,272.599463 C550.627783,270.003264 545.187096,267.246082 542.888252,266.401602 C538.079474,264.63897 529.057058,260.573457 522.733877,257.314225 L502.576777,246.922611 L478.377635,234.907519 C471.991807,231.735601 461.886701,226.184402 454.979275,223.829679 C446.093047,220.807829 435.464981,227.138024 422.851302,231.831099 C400.064424,240.319563 378.507318,246.220014 378.507318,246.220014 L362.889345,252.310097 C359.240884,254.260998 354.008564,255.894024 349.670995,258.454752 C348.467098,259.120514 347.206002,259.910424 346.304442,260.704427 L326.156875,246.265034 L320.649456,253.975866 L301.701701,240.393233 L308.477025,230.908855 L286.932176,215.466728 C317.468118,150.771866 298.480869,71.2747171 238.363658,28.1980156 C170.77112,-20.2429801 76.4395449,-4.55937724 28.0834793,63.1532411 C-20.2698625,130.868588 -4.61648101,225.36175 62.976057,273.805474 C123.093268,316.880811 204.323614,309.210907 255.583195,259.36881 L277.12532,274.805481 L283.907454,265.311553 L302.855209,278.891458 L297.349151,286.605018 L309.445318,295.274929 C308.192393,297.058025 307.269043,299.341806 306.815539,302.268157 C304.816307,315.077251 307.835582,320.32149 317.686018,325.206927 C317.737769,326.517987 317.816758,327.782661 317.963841,328.906816 L320.396148,347.451285 C321.293623,354.246695 326.241312,364.20993 333.40477,366.274064 C337.51082,367.450062 342.266485,367.530553 346.868258,364.650588 C353.183268,365.396841 357.23212,365.586474 361.249649,363.735165 C362.814442,365.21403 364.569898,366.345006 366.491502,366.898898 C370.592105,368.083081 375.350494,368.158116 379.956352,365.276786 C380.604604,364.872963 381.209276,364.485512 381.792158,364.108974 C387.567867,365.952098 392.323531,366.032589 396.930752,363.151259 C398.347101,362.265851 399.600025,361.447291 400.716762,360.679209 L485.673195,421.558219 L489.001616,416.900614 C497.046206,419.453156 506.151697,416.700067 511.32818,409.448993 C516.504664,402.20474 516.164196,392.686256 511.153861,385.881297 L514.482281,381.222328 L493.399107,366.114445 C495.072851,365.922084 497.32539,365.617852 501.097782,365.138995 C512.364567,363.713337 513.661071,358.404978 520.970249,354.372207 C528.978069,349.946528 538.413134,346.661375 545.908889,345.919215 C547.440997,345.766417 551.951525,345.792338 556.016719,345.830537 L555.876446,357.653267 C555.843761,360.299943 557.960113,362.465034 560.593978,362.493683 L579.247568,362.714694 L579.171303,369.130838 C579.142704,371.772057 581.254971,374.027189 583.886112,374.163615 L992.152831,395.443437 L989.987451,309.936697 L992.957699,235.440947 L585.493123,238.088988 Z" id="Fill-1" fill-opacity="0.2" fill="#000000" mask="url(#mask-2)"></path>
                </g>
                <path d="M408.569939,258.619425 L397.741212,272.161993 C393.283206,277.738104 388.014034,287.624767 385.967714,294.246398 L383.421061,302.490295 C381.380195,309.111926 380.444968,319.993542 381.339295,326.791477 L383.776884,345.375778 C384.676665,352.180547 389.62546,362.166978 396.801895,364.225219 C400.902715,365.412876 405.664737,365.493511 410.275433,362.607053 C415.923604,359.07005 419.018305,356.642802 420.869672,353.943582 C424.880514,348.098232 424.997758,336.456735 425.656234,329.619166 C425.743486,328.693914 425.828011,327.780963 425.909809,326.888512 C426.531476,320.044109 428.932255,309.223995 431.414832,302.725366 L433.25393,297.910504 C435.740598,291.413242 443.252405,283.662721 450.030755,280.597227 L450.866461,280.22002 C452.104341,279.663776 453.501728,279.153999 455,278.70709 L412.768917,254 C411.158854,255.607232 409.723295,257.17483 408.569939,258.619425" id="Fill-4" fill="#E4AE8C"></path>
                <g id="Group-8" transform="translate(382.000000, 247.000000)">
                    <mask id="mask-4" fill="white">
                        <use xlink:href="#path-3"></use>
                    </mask>
                    <g id="Clip-7"></g>
                    <path d="M46.5062916,0.424373832 C56.514309,2.88900647 55.8311448,33.5758591 44.9816856,68.9675485 C34.1389904,104.363318 17.2357494,131.059425 7.22773203,128.602953 C-2.78840213,126.126079 -2.10523793,95.443307 8.74151568,60.0448167 C19.5842109,24.6585679 36.4955687,-2.04297915 46.5062916,0.424373832" id="Fill-6" mask="url(#mask-4)"></path>
                </g>
                <path d="M390.567524,261.614014 L379.738869,275.162213 C375.28362,280.738391 370.011757,290.622439 367.97363,297.241417 L365.421542,305.492247 C363.380688,312.107125 362.449558,322.991606 363.334336,329.795089 L365.780088,348.375515 C366.668957,355.181733 371.625899,365.166918 378.794105,367.22655 C382.901714,368.415588 387.662342,368.489391 392.273007,365.602898 C397.923866,362.071319 401.018546,359.646775 402.873991,356.946156 C406.879353,351.095269 406.995233,339.453631 407.656431,332.615979 C407.742319,331.692083 407.832296,330.776387 407.910004,329.885292 C408.52894,323.043541 410.931067,312.223295 413.416354,305.724588 L415.254076,300.909668 C417.739363,294.409594 425.249757,286.656246 432.033515,283.594815 L432.865125,283.220337 C434.104361,282.662719 435.501738,282.155669 437,281.707388 L394.770564,257 C393.160512,258.604518 391.716782,260.172135 390.567524,261.614014" id="Fill-9" fill="#E4AE8C"></path>
                <g id="Group-13" transform="translate(363.000000, 248.000000)">
                    <mask id="mask-6" fill="white">
                        <use xlink:href="#path-5"></use>
                    </mask>
                    <g id="Clip-12"></g>
                    <path d="M47.4792625,0.192649182 C57.6165934,2.66109223 56.9260656,33.4109957 45.9406461,68.8756118 C34.9593369,104.352495 17.8331529,131.10055 7.69993234,128.630743 C-2.43876861,126.152759 -1.74824087,95.4069448 9.23580853,59.9355135 C20.221228,24.4695344 37.3391915,-2.27579387 47.4792625,0.192649182" id="Fill-11" mask="url(#mask-6)"></path>
                </g>
                <path d="M372.575343,258.614035 L361.733608,272.159564 C357.281313,277.737135 352.011081,287.628064 349.964879,294.242972 L347.423826,302.488374 C345.378988,309.10465 344.443815,319.990548 345.340817,326.79133 L347.778265,345.380043 C348.672541,352.182192 353.622414,362.166058 360.792982,364.224333 C364.905835,365.414743 369.664856,365.491279 374.271196,362.607507 C379.917678,359.073178 383.019017,356.647256 384.871641,353.942523 C388.882251,348.094343 388.991309,336.449917 389.652474,329.614967 C389.741083,328.692433 389.82833,327.778099 389.910123,326.888367 C390.531754,320.045217 392.929669,309.222187 395.416193,302.719349 L397.253821,297.90714 C399.734892,291.415236 407.248993,283.655018 414.031042,280.596306 L414.859883,280.221826 C416.100419,279.657372 417.500452,279.153054 419,278.703404 L376.768626,254 C375.158656,255.604525 373.717727,257.174883 372.575343,258.614035" id="Fill-14" fill="#E4AE8C"></path>
                <g id="Group-18" transform="translate(346.000000, 247.000000)">
                    <mask id="mask-8" fill="white">
                        <use xlink:href="#path-7"></use>
                    </mask>
                    <g id="Clip-17"></g>
                    <path d="M46.7051533,0.0272034508 C56.7145234,2.49183609 56.032712,33.1786887 45.1859584,68.5676578 C34.3419104,103.967508 17.4319054,130.656814 7.42524089,128.200342 C-2.58142367,125.726188 -1.90367067,95.0434162 8.94308293,59.6462861 C19.7871309,24.257317 36.6957831,-2.43606902 46.7051533,0.0272034508" id="Fill-16" mask="url(#mask-8)"></path>
                </g>
                <path d="M356.874,261.315445 L345.741267,274.022108 C341.277812,279.54539 336.015462,289.343495 333.966417,295.905354 L331.41704,304.074504 C329.376175,310.637718 328.447766,321.413466 329.338003,328.151356 L331.772862,346.557331 C332.671279,353.303345 337.622796,363.192173 344.795134,365.240892 C348.902767,366.405399 353.664785,366.487998 358.274113,363.62954 C363.922278,360.131958 367.015613,357.724408 368.872432,355.051459 C372.87918,349.253299 372.99506,337.726038 373.654899,330.951588 C373.743514,330.036232 373.830765,329.129 373.90711,328.242079 C374.531503,321.463567 376.929553,310.740627 379.414855,304.303343 L381.255314,299.528866 C383.736526,293.09429 391.248327,285.412608 398.03485,282.380828 L398.863738,282.008457 C400.100254,281.454639 401.50173,280.952277 403,280.501369 L363.486021,257 C361.747809,257.825987 358.066891,259.683782 356.874,261.315445" id="Fill-19" fill="#E4AE8C"></path>
                <path d="M520.46655,380.776624 C529.630686,387.280397 531.745487,399.913705 525.19016,409 L492,385.461487 C498.558102,376.376567 511.302413,374.276978 520.46655,380.776624" id="Fill-21" fill="#3C3C3B"></path>
                <path d="M491.810449,386 L525,409.536687 C518.444519,418.624185 505.702684,420.722358 496.535557,414.224213 C487.369818,407.720564 485.25358,395.086122 491.810449,386" id="Fill-23" fill="#2B2B2B"></path>
                <path d="M520.46655,380.776624 C529.630686,387.280397 531.745487,399.913705 525.19016,409 L492,385.461487 C498.558102,376.376567 511.302413,374.276978 520.46655,380.776624" id="Fill-42" fill="#3C3C3B"></path>
                <path d="M491.810449,386 L525,409.536687 C518.444519,418.624185 505.702684,420.722358 496.535557,414.224213 C487.369818,407.720564 485.25358,395.086122 491.810449,386" id="Fill-44" fill="#2B2B2B"></path>
                <path d="M525.164586,409.421349 C518.584403,418.635916 505.786505,420.756563 496.571461,414.174331 C487.370358,407.580945 485.237375,394.781772 491.831499,385.578358 C498.411682,376.363791 511.223521,374.244538 520.424624,380.823982 C529.639668,387.420156 531.75871,400.217935 525.164586,409.421349" id="Fill-63" fill="#808080"></path>
                <path d="M267.336392,225.396118 C226.015735,283.126595 145.402346,296.499868 87.6405319,255.199295 C29.8787179,213.901443 16.4998623,133.328529 57.8205191,75.5980521 C99.1547861,17.8648545 179.754565,4.49294214 237.516379,45.793515 C295.278193,87.1063307 308.657049,167.664281 267.336392,225.396118 L267.336392,225.396118 Z M313.502291,239.638633 L320.280185,230.17083 L298.789633,214.799252 C329.317377,150.291677 310.303887,71.000182 250.214723,28.0549863 C182.667154,-20.2512172 88.3890946,-4.60621572 40.0727798,62.9062981 C-8.25714517,130.418812 7.38100853,224.646584 74.9421878,272.952787 C135.017741,315.896623 216.21637,308.292453 267.458884,258.586483 L288.949437,273.944458 L295.727331,264.476654 L318.22504,280.556957 L327.11252,268.137266 L336,255.716215 L313.502291,239.638633 Z" id="Fill-65" fill="#808080"></path>
                <polygon id="Fill-67" fill="#129793" points="515.267766 402.280878 500.549457 423 399.582136 350.335979 326.477953 297.732664 308 284.424235 322.718309 263.705113 337.450543 243 530 381.575765"></polygon>
                <path d="M218.686149,201.876256 C164.397671,162.766788 91.8338898,168.265379 44,211.170287 C46.8925918,205.142801 50.2994826,199.267406 54.2982254,193.637275 C92.1685923,140.331219 165.775938,128.028241 218.713361,166.164871 C251.802652,190.006259 268.979967,227.903105 267.956811,266 C258.464048,241.070677 241.862259,218.570709 218.686149,201.876256" id="Fill-69" fill="#FFFFFF" transform="translate(156.000000, 205.000000) scale(-1, -1) translate(-156.000000, -205.000000) "></path>
                <path d="M482.214056,300.607319 L485.945701,352.368661 L487,367 L462.303765,362.755858 L456.0298,361.58463 L414.97352,353.887792 L399.598214,351.539792 L328,299.49985 C332.367225,298.662665 336.929489,298.72781 340.292879,298.274565 C346.961013,297.412431 359.590777,298.697316 372.006408,300.50475 C389.077048,302.985812 405.704419,306.41356 405.704419,306.41356 L421.280218,305.355989 L469.925268,302.008634 L482.214056,300.607319 Z" id="Fill-71" fill-opacity="0.2" fill="#000000"></path>
                <path d="M603,281.123909 L598.246863,342.620764 C598.374665,348.808706 600.790662,354.839524 595.481451,350.755674 C589.457095,346.113009 582.017403,344.862851 574.494775,345.015876 C571.97545,345.060964 560.149711,344.789071 557.465874,345.0514 C557.158606,345.081458 556.830944,345.119714 556.507361,345.160703 C549.183234,346.084317 540.231675,349.263681 532.578526,353.519685 C525.289749,357.558447 523.977742,362.869229 512.748864,364.297005 C496.660801,366.356009 508.11809,365.172799 475.060949,365.989842 C459.777765,366.365573 450.986637,356.233143 445.670629,349.638046 C441.549703,344.521278 432.062464,335.163536 430.6716,329.090363 L420.406674,306.893564 C419.032125,300.808094 422.949112,292.990165 429.170609,289.396814 C435.378511,285.817126 434.439032,282.092611 427.051004,281.050129 L421.510663,280.27954 C415.479509,279.462496 406.689741,280.259045 399.984229,282.119937 L358,260.001017 C362.640291,255.806497 370.040555,253.834936 374.756982,251.292264 L390.352873,245.191765 C390.352873,245.191765 411.882026,239.286646 434.619858,230.791035 C447.213767,226.095086 457.818591,219.758218 466.696733,222.791389 C473.598027,225.12775 483.680768,230.687197 490.058618,233.861096 L514.214505,245.903604 L534.340559,256.302461 C540.655868,259.581565 549.66589,263.650386 554.451657,265.408805 C555.177679,265.675232 556.171542,266.117911 557.429165,266.693121 C564.59286,269.958561 579.405625,277.295556 588.819446,276.811888 L594.007653,278.216437 C601.515325,278.471934 602.880356,274.911374 603,281.123909" id="Fill-73" fill="#E4AE8C"></path>
                <g id="Group-77" transform="translate(308.000000, 271.000000)">
                    <mask id="mask-10" fill="white">
                        <use xlink:href="#path-9"></use>
                    </mask>
                    <g id="Clip-76"></g>
                    <path d="M0.144995101,25.9606231 C6.78741216,2.98330218 43.8227173,-6.45133956 82.8633321,4.88037383 C121.920361,16.2120872 148.186361,44.0321495 141.553519,66.9930218 C134.898791,89.978567 97.8689571,99.4077259 58.8187672,88.0773832 C19.7726809,76.7484112 -6.4946862,48.9379439 0.144995101,25.9606231" id="Fill-75" mask="url(#mask-10)"></path>
                </g>
                <path d="M475.808122,296.627676 L411.276453,298.034039 C411.276453,298.034039 362.088429,285.788094 346.103244,287.098075 C337.716699,287.786324 322.016036,285.245097 319.588028,300.713731 C317.209264,315.829417 321.876511,320.360729 336.723609,326.259036 C364.290735,337.209933 365.580657,334.81803 387.357496,338.834852 L418.422321,344.896059 L465.450444,355.723424 L490,361 L488.184807,295.815896 L475.808122,296.627676 Z" id="Fill-78" fill="#E4AE8C"></path>
                <path d="M362.372907,300.180034 C362.786846,300.613748 363.145683,301.130868 363.448074,301.698033 C364.203379,303.107603 364.642854,304.891113 364.843103,306.731618 C364.994971,308.084194 365.023194,309.479864 364.984219,310.772665 C364.938524,312.397703 364.755746,313.867048 364.524585,314.997207 C364.31224,316.046739 364.130805,317.267255 363.758529,318.523914 C363.44673,319.599858 362.997848,320.707775 362.251951,321.79206 C361.907897,322.29389 361.496646,322.815181 361.007445,323.308669 C360.609633,323.704851 360.162095,324.109372 359.65139,324.486092 C359.42023,324.71407 358.74153,324.875322 358.402853,325.081059 C358.144813,325.22841 357.850486,325.375762 357.545407,325.470289 C357.143563,325.591229 356.716184,325.689926 356.260582,325.776113 C353.252803,326.284893 349.251837,325.86786 345.401395,325.114421 C343.810148,324.811377 342.338513,324.568108 340.762049,324.112153 C339.814558,323.841081 338.817341,323.493554 337.717983,323.019527 C337.203246,322.790159 336.661631,322.526038 336.089104,322.218824 C335.38487,321.847665 334.649725,321.40978 333.844693,320.923242 C333.050414,320.407512 332.223879,319.844517 331.323427,319.192556 C330.719989,318.750502 330.174342,318.22226 329.674389,317.664826 C329.072296,316.997574 328.562935,316.276107 328.124805,315.529619 C327.202849,313.928213 326.611507,312.215599 326.302396,310.610022 C325.919368,308.695842 325.932808,306.940134 326.161281,305.755761 C326.37497,304.625603 326.814445,303.457911 327.423258,302.29717 C327.924555,301.368577 328.541432,300.424693 329.288673,299.522512 C330.304706,298.315897 330.371904,298.028145 331.366433,297.20659 C331.91208,296.738123 334.06779,295.521778 335.402342,295.106135 C336.547394,294.641839 336.765116,294.682152 337.614498,294.558432 C338.461192,294.413861 339.238,294.301262 339.969114,294.212295 C340.542984,294.133059 341.099383,294.092746 341.627559,294.02463 C342.730949,293.944004 343.554796,294.074674 344.488847,294.223416 C346.265561,294.512559 347.441525,294.506998 349.044867,294.821163 C353.332096,295.662179 358.1811,296.321091 361.54906,299.36821 C361.843387,299.633721 362.118899,299.903402 362.372907,300.180034" id="Fill-80" fill="#EDBEAD"></path>
                <path d="M603,282.36378 L598.297228,343.575077 C598.423675,349.734285 600.814072,355.737099 595.561118,351.672212 C589.600597,347.051106 582.239736,345.806753 574.796818,345.959067 C572.304188,346.003945 560.603755,345.733315 557.948357,345.994426 C557.644344,346.024344 557.320154,346.062423 557,346.103222 L557.407592,310.709193 L557.912036,268 C564.999825,271.250278 579.655632,278.553203 588.969704,278.071781 L594.102936,279.469808 C601.531056,279.724119 602.881624,276.180092 603,282.36378" id="Fill-82" fill-opacity="0.2" fill="#000000"></path>
                <path d="M978,256.828978 L977.373995,310.419914 L976.693555,368 L579.547894,363.268968 L571.695616,363.174347 C569.082726,363.133208 566.959753,360.952819 567.000579,358.2911 L567.531322,311.859793 L568.184545,256.759041 C568.211762,254.100064 570.375562,251.959444 573.01567,252.000583 L580.867948,252.097946 L978,256.828978 Z" id="Fill-84" fill="#FFFFFF"></path>
                <polygon id="Fill-86" fill-opacity="0.2" fill="#000000" points="979 256.693072 978.36927 309.862628 977.686886 367 581 362.309649 581.58995 312.333669 581.599465 311.249187 582.311755 252"></polygon>
                <path d="M1006,394 L596.710217,372.717417 C594.082987,372.582355 591.973035,370.31767 592.000261,367.683268 L592.68089,309.920156 L593.497646,241.448904 C593.524871,238.814502 595.689273,236.658959 598.316503,236.645316 L1005.60523,234 L1006,394 Z" id="Fill-88" fill="#418AA3"></path>
                <path d="M610.417355,247.001682 C615.660128,246.923982 619.9511,249.547657 619.999607,252.858977 C620.046804,256.175478 615.833183,258.928653 610.586477,258.998583 C605.343704,259.069808 601.055355,256.447428 601.000292,253.129633 C600.95965,249.819607 605.170649,247.070317 610.417355,247.001682" id="Fill-90" fill-opacity="0.2" fill="#000000"></path>
                <path d="M638.410164,247.001681 C643.658665,246.923998 647.948482,249.548401 647.999629,252.860302 C648.04553,256.181266 643.827845,258.927373 638.587213,258.998583 C633.338712,259.069793 629.050207,256.447979 629.000371,253.133489 C628.95447,249.818998 633.169533,247.074186 638.410164,247.001681" id="Fill-92" fill-opacity="0.2" fill="#000000"></path>
                <path d="M612.416031,245.001626 C617.660828,244.925229 621.952382,247.549928 621.999585,250.859611 C622.0481,254.17577 617.833906,256.927365 612.586487,256.998583 C607.341691,257.069801 603.055381,254.447692 603.000311,251.131534 C602.958352,247.820555 607.171235,245.072844 612.416031,245.001626" id="Fill-94" fill="#FFFFFF"></path>
                <path d="M638.411476,245.001736 C643.658665,244.92275 647.948482,247.548708 647.999629,250.860938 C648.04553,254.180936 643.827845,256.927315 638.587213,256.998532 C633.338712,257.071044 629.050207,254.447675 629.000371,251.134151 C628.95447,247.818037 633.169533,245.072953 638.411476,245.001736" id="Fill-96" fill="#FFFFFF"></path>
            </g>
        </g>
    </g>
</svg>